<svg xmlns="http://www.w3.org/2000/svg" xmlns:xlink="http://www.w3.org/1999/xlink" id="Camada_1" x="0px" y="0px" viewBox="0 0 200 200" style="enable-background:new 0 0 200 200;" xml:space="preserve"><path d="M160,179.2c2.2,2.7,4.2,5.2,6.1,7.7c1.5,1.9,3.7,3.7,2.2,6.5c-1.4,2.8-4.2,2.2-6.6,2.2c-17.5,0-35,0-52.5,0 c-23.7,0-47.5,0-71.2,0c-0.8,0-1.7,0-2.5,0c-4.1-0.3-5.7-3.6-3.2-6.9c2.3-3.1,4.8-6.1,7.5-9.5c-1.1-0.8-2.1-1.6-3.1-2.3 c-9.6-6.8-19.3-13.6-29-20.4c-4.2-3-4.4-4.6-1.3-8.7c6.9-9.1,14.9-17.1,24.9-22.9c1.9-1.1,2.2-2.2,1.8-4.3c-0.5-2.9-0.4-5.8-0.6-8.8 c-4.5-1.7-9.1-3.3-13.4-5.3c-3.3-1.5-6.5-3.4-9.3-5.7c-7.6-6.2-7.3-15,0.3-21.1c6.4-5.1,13.9-8.3,21.8-9.8 c6.4-1.2,8.7-4.3,10.3-10.4c3-12,7.1-23.7,11.5-35.3c1.8-4.8,5.1-9.3,8.6-13.3c6.2-7,14-8.3,22.5-4.5C86.7,7.2,88.4,8,90,9 c6.7,4.1,13.2,3.7,20.1,0c3.9-2.1,8.5-3.5,12.9-4.3c5.4-1,10.4,1.2,13.5,5.4c4.1,5.5,8.4,11.3,10.8,17.7 c4.5,11.9,7.8,24.3,11.4,36.5c0.7,2.4,1.7,3.6,4.3,4.3c6.6,1.9,13,4.2,19.4,6.7c2.8,1.1,5.4,3,7.7,4.9c7.4,6.2,7.5,15.2-0.4,20.7 c-5.8,4-12.6,6.7-19.2,9.6c-2.4,1-4,1.7-3.3,4.6c0.2,0.8,0.3,1.7,0,2.5c-2,4.9,0.6,7.1,4.6,9.5c9,5.6,16.1,13.4,22.5,21.9 c2.1,2.9,1.7,4.8-1.5,7.1c-10,7.1-20.1,14.2-30.1,21.3C161.9,177.8,161.1,178.4,160,179.2z M41.2,113.8c-1.7,6.4,3,15.9,8.3,17.8 c1.4,0.5,2.9,1.8,3.6,3.1c2.8,5.7,5,11.7,7.8,17.4c5.3,10.9,11.6,21.2,21.3,28.8c10.6,8.3,23.3,9.2,34,1.2 c5.2-3.9,10.1-8.8,13.4-14.4c6.4-10.7,11.4-22.2,17.1-33.3c0.6-1.2,1.7-2.7,2.8-3.1c6.3-2.2,11-10.8,9.2-17.7 c-4.4,0.8-8.7,1.7-13.2,2.2c-2.5,0.3-3.6,1.2-3.7,3.9c-0.4,6.2-3.2,11.4-8.4,14.9c-6.6,4.5-13.8,4.7-20.9,1.5 c-6.4-2.9-8.9-8.4-8.9-15.3c0-0.5-0.2-1.1-0.4-1.6c-2.4,0-4.6,0-6.7,0c-1.7,15-11.5,22.1-24.8,18.1c-7.6-2.3-12.9-9.1-13.8-17.6 c-0.1-1.2-0.8-3.1-1.6-3.3C51.4,115.5,46.3,114.7,41.2,113.8z M150.6,64.5c-34.1,12.1-67.5,12.6-101.3-0.3c-0.3,1.4-0.6,3.3-1.3,5 c-1.3,3.3,0,5.3,2.8,6.5c3.9,1.7,7.8,3.5,11.9,4.5c23.9,6.1,47.9,5.8,71.9,0.5c5.3-1.2,10.4-3.7,15.4-5.9c1.1-0.5,2.3-2.5,2.2-3.8 C152.1,68.6,151.1,66.3,150.6,64.5z"></path></svg>