<svg xmlns="http://www.w3.org/2000/svg" width="1640" height="171" viewBox="0 0 1640 171" fill="none"><path d="M100.295 26.9304L62.3996 14.3096C61.1588 13.8968 59.8175 13.8968 58.5767 14.3096L20.6809 26.9304C14.6557 28.9295 9.41448 32.7742 5.70189 37.9183C1.9893 43.0624 -0.00581699 49.2443 1.27395e-05 55.5856V86.5003C1.27395e-05 132.193 55.6491 157.428 58.0323 158.48C58.8055 158.823 59.6421 159 60.4882 159C61.3342 159 62.1708 158.823 62.944 158.48C65.3272 157.428 120.976 132.193 120.976 86.5003V55.5856C120.982 49.2443 118.987 43.0624 115.274 37.9183C111.562 32.7742 106.321 28.9295 100.295 26.9304V26.9304ZM108.879 86.5003C108.879 119.457 70.6562 141.074 60.4882 146.245C50.308 141.092 12.0976 119.542 12.0976 86.5003V55.5856C12.098 51.7811 13.297 48.0731 15.5247 44.9871C17.7524 41.9011 20.8959 39.5935 24.5098 38.3913L60.4882 26.4108L96.4665 38.3913C100.08 39.5935 103.224 41.9011 105.452 44.9871C107.679 48.0731 108.878 51.7811 108.879 55.5856V86.5003Z" fill="white"></path><path d="M80.538 63.8172L55.0866 89.1662L41.4493 75.0432C40.902 74.4489 40.2405 73.9694 39.5037 73.633C38.7669 73.2965 37.9698 73.1099 37.1593 73.0841C36.3488 73.0584 35.5413 73.1939 34.7844 73.4829C34.0275 73.7718 33.3364 74.2083 32.752 74.7666C32.1675 75.3249 31.7015 75.9937 31.3813 76.7336C31.0611 77.4735 30.8933 78.2696 30.8877 79.0749C30.8821 79.8802 31.0389 80.6785 31.3487 81.4228C31.6586 82.167 32.1153 82.8421 32.692 83.4083L46.7061 97.8935C47.7512 99.0146 49.0144 99.9135 50.4194 100.536C51.8243 101.158 53.3417 101.491 54.8799 101.515H55.0805C56.588 101.52 58.0815 101.227 59.4742 100.654C60.8669 100.081 62.1312 99.2393 63.1936 98.1771L89.1556 72.3936C89.7226 71.8317 90.1726 71.1643 90.4799 70.4296C90.7873 69.695 90.9459 68.9074 90.9467 68.1118C90.9476 67.3163 90.7906 66.5283 90.4849 65.793C90.1791 65.0577 89.7305 64.3894 89.1647 63.8263C88.5988 63.2631 87.9269 62.8162 87.1871 62.511C86.4473 62.2057 85.6543 62.0482 84.8532 62.0474C84.0522 62.0465 83.2588 62.2024 82.5184 62.5061C81.778 62.8097 81.1051 63.2553 80.538 63.8172V63.8172Z" fill="white"></path><path d="M177.61 86.26C172.943 86.26 168.953 85.4433 165.64 83.81C162.373 82.1767 159.737 80.0533 157.73 77.44C155.723 74.8267 154.253 72.0033 153.32 68.97C152.387 65.89 151.92 62.9267 151.92 60.08V58.54C151.92 55.46 152.387 52.38 153.32 49.3C154.3 46.22 155.793 43.42 157.8 40.9C159.807 38.38 162.42 36.35 165.64 34.81C168.86 33.27 172.71 32.5 177.19 32.5C181.763 32.5 185.683 33.2933 188.95 34.88C192.217 36.4667 194.807 38.6833 196.72 41.53C198.633 44.3767 199.8 47.7367 200.22 51.61H193.22C192.847 48.7167 191.913 46.3367 190.42 44.47C188.927 42.5567 187.037 41.1333 184.75 40.2C182.51 39.2667 179.99 38.8 177.19 38.8C174.157 38.8 171.497 39.3367 169.21 40.41C166.923 41.4367 165.01 42.9067 163.47 44.82C161.977 46.6867 160.833 48.8567 160.04 51.33C159.293 53.8033 158.92 56.4867 158.92 59.38C158.92 62.1333 159.293 64.7467 160.04 67.22C160.833 69.6933 162 71.8867 163.54 73.8C165.127 75.7133 167.087 77.23 169.42 78.35C171.753 79.4233 174.483 79.96 177.61 79.96C181.997 79.96 185.683 78.8633 188.67 76.67C191.657 74.4767 193.477 71.3033 194.13 67.15H201.13C200.663 70.65 199.473 73.8467 197.56 76.74C195.693 79.6333 193.08 81.9433 189.72 83.67C186.407 85.3967 182.37 86.26 177.61 86.26ZM227.305 86.26C224.038 86.26 221.168 85.7 218.695 84.58C216.221 83.46 214.121 81.99 212.395 80.17C210.715 78.3033 209.431 76.2267 208.545 73.94C207.705 71.6533 207.285 69.32 207.285 66.94V65.68C207.285 63.3 207.728 60.9667 208.615 58.68C209.501 56.3467 210.808 54.27 212.535 52.45C214.261 50.5833 216.361 49.1133 218.835 48.04C221.308 46.92 224.131 46.36 227.305 46.36C230.478 46.36 233.301 46.92 235.775 48.04C238.248 49.1133 240.348 50.5833 242.075 52.45C243.801 54.27 245.108 56.3467 245.995 58.68C246.881 60.9667 247.325 63.3 247.325 65.68V66.94C247.325 69.32 246.881 71.6533 245.995 73.94C245.155 76.2267 243.871 78.3033 242.145 80.17C240.465 81.99 238.388 83.46 235.915 84.58C233.441 85.7 230.571 86.26 227.305 86.26ZM227.305 80.24C230.105 80.24 232.485 79.6333 234.445 78.42C236.451 77.16 237.968 75.48 238.995 73.38C240.068 71.28 240.605 68.9233 240.605 66.31C240.605 63.65 240.068 61.27 238.995 59.17C237.921 57.07 236.381 55.4133 234.375 54.2C232.415 52.9867 230.058 52.38 227.305 52.38C224.598 52.38 222.241 52.9867 220.235 54.2C218.228 55.4133 216.688 57.07 215.615 59.17C214.541 61.27 214.005 63.65 214.005 66.31C214.005 68.9233 214.518 71.28 215.545 73.38C216.618 75.48 218.135 77.16 220.095 78.42C222.101 79.6333 224.505 80.24 227.305 80.24ZM257.389 85V47.62H262.709V63.65H261.869C261.869 60.01 262.336 56.93 263.269 54.41C264.249 51.8433 265.696 49.8833 267.609 48.53C269.523 47.1767 271.949 46.5 274.889 46.5H275.169C278.109 46.5 280.536 47.1767 282.449 48.53C284.409 49.8833 285.856 51.8433 286.789 54.41C287.723 56.93 288.189 60.01 288.189 63.65H286.229C286.229 60.01 286.719 56.93 287.699 54.41C288.679 51.8433 290.126 49.8833 292.039 48.53C293.999 47.1767 296.449 46.5 299.389 46.5H299.669C302.609 46.5 305.059 47.1767 307.019 48.53C308.979 49.8833 310.426 51.8433 311.359 54.41C312.339 56.93 312.829 60.01 312.829 63.65V85H306.109V62.18C306.109 59.1467 305.363 56.8133 303.869 55.18C302.376 53.5 300.299 52.66 297.639 52.66C294.886 52.66 292.669 53.5467 290.989 55.32C289.309 57.0467 288.469 59.4733 288.469 62.6V85H281.749V62.18C281.749 59.1467 281.003 56.8133 279.509 55.18C278.016 53.5 275.939 52.66 273.279 52.66C270.526 52.66 268.309 53.5467 266.629 55.32C264.949 57.0467 264.109 59.4733 264.109 62.6V85H257.389ZM325.133 99V47.62H330.453V63.79L329.193 63.65C329.427 59.6367 330.267 56.37 331.713 53.85C333.207 51.2833 335.143 49.3933 337.523 48.18C339.903 46.9667 342.493 46.36 345.293 46.36C348 46.36 350.45 46.8733 352.643 47.9C354.883 48.9267 356.797 50.3267 358.383 52.1C359.97 53.8733 361.183 55.9267 362.023 58.26C362.863 60.5933 363.283 63.0667 363.283 65.68V66.94C363.283 69.5533 362.84 72.0267 361.953 74.36C361.067 76.6933 359.807 78.7467 358.173 80.52C356.587 82.2933 354.673 83.6933 352.433 84.72C350.24 85.7467 347.813 86.26 345.153 86.26C342.493 86.26 339.95 85.6767 337.523 84.51C335.097 83.3433 333.09 81.4533 331.503 78.84C329.917 76.2267 329.007 72.7967 328.773 68.55L331.853 74.15V99H325.133ZM344.103 80.38C346.623 80.38 348.817 79.7967 350.683 78.63C352.55 77.4167 353.997 75.76 355.023 73.66C356.05 71.5133 356.563 69.0633 356.563 66.31C356.563 63.51 356.05 61.06 355.023 58.96C353.997 56.86 352.55 55.2267 350.683 54.06C348.817 52.8467 346.623 52.24 344.103 52.24C341.863 52.24 339.787 52.7533 337.873 53.78C335.96 54.76 334.42 56.2067 333.253 58.12C332.133 59.9867 331.573 62.25 331.573 64.91V68.13C331.573 70.6967 332.157 72.89 333.323 74.71C334.49 76.53 336.03 77.93 337.943 78.91C339.857 79.89 341.91 80.38 344.103 80.38ZM373.395 85V47.62H378.715V63.02H378.435C378.435 57.56 379.625 53.57 382.005 51.05C384.432 48.4833 388.048 47.2 392.855 47.2H394.115V53.22H391.735C388.002 53.22 385.132 54.2233 383.125 56.23C381.118 58.19 380.115 61.0367 380.115 64.77V85H373.395ZM424.579 85V73.8H423.459V60.85C423.459 58.2833 422.783 56.3467 421.429 55.04C420.123 53.7333 418.186 53.08 415.619 53.08C414.173 53.08 412.679 53.1033 411.139 53.15C409.599 53.1967 408.129 53.2433 406.729 53.29C405.329 53.3367 404.116 53.4067 403.089 53.5V47.62C404.116 47.5267 405.189 47.4567 406.309 47.41C407.476 47.3167 408.666 47.27 409.879 47.27C411.093 47.2233 412.259 47.2 413.379 47.2C417.206 47.2 420.333 47.6667 422.759 48.6C425.186 49.4867 426.983 50.9567 428.149 53.01C429.316 55.0633 429.899 57.84 429.899 61.34V85H424.579ZM412.329 85.98C409.529 85.98 407.103 85.5133 405.049 84.58C403.043 83.6 401.479 82.2 400.359 80.38C399.286 78.56 398.749 76.3667 398.749 73.8C398.749 71.14 399.333 68.9233 400.499 67.15C401.713 65.3767 403.463 64.0467 405.749 63.16C408.036 62.2267 410.789 61.76 414.009 61.76H424.159V66.8H413.729C411.023 66.8 408.946 67.4533 407.499 68.76C406.053 70.0667 405.329 71.7467 405.329 73.8C405.329 75.8533 406.053 77.51 407.499 78.77C408.946 80.03 411.023 80.66 413.729 80.66C415.316 80.66 416.833 80.38 418.279 79.82C419.726 79.2133 420.916 78.2333 421.849 76.88C422.829 75.48 423.366 73.5667 423.459 71.14L425.279 73.8C425.046 76.46 424.393 78.7 423.319 80.52C422.293 82.2933 420.846 83.6467 418.979 84.58C417.159 85.5133 414.943 85.98 412.329 85.98ZM171.52 156.33C166.9 156.33 163.003 155.607 159.83 154.16C156.657 152.667 154.253 150.66 152.62 148.14C150.987 145.573 150.17 142.633 150.17 139.32H161.3C161.3 140.627 161.65 141.84 162.35 142.96C163.097 144.08 164.217 144.99 165.71 145.69C167.203 146.343 169.14 146.67 171.52 146.67C173.667 146.67 175.463 146.39 176.91 145.83C178.357 145.27 179.453 144.5 180.2 143.52C180.947 142.493 181.32 141.327 181.32 140.02C181.32 138.387 180.62 137.103 179.22 136.17C177.82 135.19 175.557 134.56 172.43 134.28L168.58 133.93C163.493 133.51 159.433 131.923 156.4 129.17C153.367 126.417 151.85 122.777 151.85 118.25C151.85 114.983 152.62 112.16 154.16 109.78C155.747 107.4 157.94 105.58 160.74 104.32C163.54 103.013 166.853 102.36 170.68 102.36C174.693 102.36 178.123 103.06 180.97 104.46C183.863 105.813 186.08 107.75 187.62 110.27C189.16 112.743 189.93 115.66 189.93 119.02H178.73C178.73 117.76 178.427 116.617 177.82 115.59C177.213 114.517 176.303 113.653 175.09 113C173.923 112.347 172.453 112.02 170.68 112.02C169 112.02 167.577 112.3 166.41 112.86C165.29 113.42 164.45 114.19 163.89 115.17C163.33 116.103 163.05 117.13 163.05 118.25C163.05 119.697 163.563 120.957 164.59 122.03C165.617 123.103 167.297 123.733 169.63 123.92L173.55 124.27C177.283 124.597 180.573 125.413 183.42 126.72C186.267 127.98 188.483 129.73 190.07 131.97C191.703 134.163 192.52 136.847 192.52 140.02C192.52 143.287 191.657 146.157 189.93 148.63C188.25 151.057 185.847 152.947 182.72 154.3C179.593 155.653 175.86 156.33 171.52 156.33ZM217.369 156.33C214.103 156.33 211.209 155.77 208.689 154.65C206.216 153.53 204.139 152.037 202.459 150.17C200.826 148.257 199.566 146.133 198.679 143.8C197.839 141.42 197.419 138.993 197.419 136.52V135.12C197.419 132.553 197.839 130.103 198.679 127.77C199.566 125.39 200.826 123.267 202.459 121.4C204.093 119.533 206.123 118.063 208.549 116.99C211.023 115.87 213.823 115.31 216.949 115.31C221.056 115.31 224.509 116.243 227.309 118.11C230.156 119.93 232.326 122.333 233.819 125.32C235.313 128.26 236.059 131.48 236.059 134.98V138.76H202.109V132.39H229.269L225.629 135.33C225.629 133.043 225.303 131.083 224.649 129.45C223.996 127.817 223.016 126.58 221.709 125.74C220.449 124.853 218.863 124.41 216.949 124.41C214.989 124.41 213.333 124.853 211.979 125.74C210.626 126.627 209.599 127.933 208.899 129.66C208.199 131.34 207.849 133.417 207.849 135.89C207.849 138.177 208.176 140.183 208.829 141.91C209.483 143.59 210.509 144.897 211.909 145.83C213.309 146.763 215.129 147.23 217.369 147.23C219.423 147.23 221.103 146.833 222.409 146.04C223.716 145.247 224.603 144.267 225.069 143.1H235.359C234.799 145.667 233.703 147.953 232.069 149.96C230.436 151.967 228.383 153.53 225.909 154.65C223.436 155.77 220.589 156.33 217.369 156.33ZM258.601 170.26C256.734 170.26 254.821 170.19 252.861 170.05C250.901 169.91 249.104 169.723 247.471 169.49V160.04C249.104 160.273 250.901 160.46 252.861 160.6C254.868 160.787 256.688 160.88 258.321 160.88C261.354 160.88 263.804 160.53 265.671 159.83C267.584 159.13 268.984 158.057 269.871 156.61C270.758 155.21 271.201 153.39 271.201 151.15V143.52L273.231 139.04C273.138 142.447 272.461 145.363 271.201 147.79C269.988 150.217 268.284 152.083 266.091 153.39C263.898 154.65 261.284 155.28 258.251 155.28C255.638 155.28 253.258 154.813 251.111 153.88C249.011 152.9 247.214 151.547 245.721 149.82C244.228 148.093 243.084 146.087 242.291 143.8C241.498 141.467 241.101 138.947 241.101 136.24V134.63C241.101 131.923 241.521 129.403 242.361 127.07C243.201 124.737 244.414 122.707 246.001 120.98C247.588 119.253 249.478 117.923 251.671 116.99C253.864 116.01 256.291 115.52 258.951 115.52C262.031 115.52 264.691 116.197 266.931 117.55C269.218 118.903 271.014 120.887 272.321 123.5C273.628 126.113 274.328 129.263 274.421 132.95L272.881 133.37V116.64H281.771V150.45C281.771 155.163 280.931 158.967 279.251 161.86C277.571 164.753 275.004 166.877 271.551 168.23C268.144 169.583 263.828 170.26 258.601 170.26ZM261.751 145.83C263.478 145.83 265.041 145.457 266.441 144.71C267.841 143.917 268.938 142.797 269.731 141.35C270.571 139.903 270.991 138.153 270.991 136.1V134.07C270.991 132.063 270.548 130.383 269.661 129.03C268.821 127.63 267.701 126.58 266.301 125.88C264.901 125.133 263.408 124.76 261.821 124.76C259.954 124.76 258.298 125.203 256.851 126.09C255.404 126.977 254.284 128.213 253.491 129.8C252.698 131.387 252.301 133.253 252.301 135.4C252.301 137.593 252.698 139.483 253.491 141.07C254.331 142.61 255.451 143.8 256.851 144.64C258.298 145.433 259.931 145.83 261.751 145.83ZM304.419 156.19C299.986 156.19 296.579 154.767 294.199 151.92C291.819 149.027 290.629 144.687 290.629 138.9V116.64H301.829V139.46C301.829 141.513 302.413 143.147 303.579 144.36C304.746 145.573 306.309 146.18 308.269 146.18C310.276 146.18 311.909 145.55 313.169 144.29C314.429 143.03 315.059 141.327 315.059 139.18V116.64H326.259V155H317.369V138.83H318.139C318.139 142.703 317.626 145.947 316.599 148.56C315.619 151.127 314.149 153.04 312.189 154.3C310.229 155.56 307.803 156.19 304.909 156.19H304.419ZM336.587 155V116.64H345.477V133.09H345.267C345.267 127.677 346.41 123.5 348.697 120.56C351.03 117.62 354.39 116.15 358.777 116.15H360.247V125.81H357.447C354.367 125.81 351.987 126.65 350.307 128.33C348.627 129.963 347.787 132.343 347.787 135.47V155H336.587ZM388.946 155V143.66H387.056V131.34C387.056 129.38 386.589 127.91 385.656 126.93C384.723 125.95 383.229 125.46 381.176 125.46C380.149 125.46 378.796 125.483 377.116 125.53C375.436 125.577 373.709 125.647 371.936 125.74C370.163 125.833 368.553 125.927 367.106 126.02V116.57C368.179 116.477 369.439 116.383 370.886 116.29C372.333 116.197 373.826 116.127 375.366 116.08C376.906 116.033 378.353 116.01 379.706 116.01C383.626 116.01 386.916 116.57 389.576 117.69C392.283 118.81 394.336 120.513 395.736 122.8C397.136 125.04 397.836 127.933 397.836 131.48V155H388.946ZM376.696 155.98C373.943 155.98 371.516 155.49 369.416 154.51C367.363 153.53 365.753 152.13 364.586 150.31C363.419 148.443 362.836 146.227 362.836 143.66C362.836 140.86 363.559 138.573 365.006 136.8C366.453 134.98 368.483 133.65 371.096 132.81C373.709 131.923 376.719 131.48 380.126 131.48H388.316V137.71H380.056C378.096 137.71 376.579 138.2 375.506 139.18C374.479 140.113 373.966 141.397 373.966 143.03C373.966 144.57 374.479 145.83 375.506 146.81C376.579 147.743 378.096 148.21 380.056 148.21C381.316 148.21 382.436 148 383.416 147.58C384.443 147.113 385.283 146.343 385.936 145.27C386.589 144.197 386.963 142.703 387.056 140.79L389.716 143.59C389.483 146.25 388.829 148.49 387.756 150.31C386.729 152.13 385.283 153.53 383.416 154.51C381.596 155.49 379.356 155.98 376.696 155.98Z" fill="white"></path><path d="M674.01 86.26C669.763 86.26 666.147 85.56 663.16 84.16C660.173 82.76 657.887 80.8233 656.3 78.35C654.713 75.8767 653.92 73.0767 653.92 69.95H660.78C660.78 71.49 661.177 73.03 661.97 74.57C662.81 76.11 664.187 77.3933 666.1 78.42C668.06 79.4467 670.697 79.96 674.01 79.96C677.09 79.96 679.61 79.5167 681.57 78.63C683.53 77.6967 684.977 76.5067 685.91 75.06C686.843 73.5667 687.31 71.9567 687.31 70.23C687.31 68.13 686.4 66.4033 684.58 65.05C682.76 63.65 680.1 62.7867 676.6 62.46L670.93 61.97C666.403 61.5967 662.787 60.1967 660.08 57.77C657.373 55.3433 656.02 52.1467 656.02 48.18C656.02 45.0533 656.767 42.3233 658.26 39.99C659.8 37.6567 661.923 35.8367 664.63 34.53C667.337 33.1767 670.487 32.5 674.08 32.5C677.627 32.5 680.753 33.1533 683.46 34.46C686.167 35.7667 688.267 37.61 689.76 39.99C691.3 42.3233 692.07 45.1233 692.07 48.39H685.21C685.21 46.7567 684.813 45.2167 684.02 43.77C683.273 42.3233 682.083 41.1333 680.45 40.2C678.817 39.2667 676.693 38.8 674.08 38.8C671.56 38.8 669.46 39.2433 667.78 40.13C666.147 41.0167 664.91 42.1833 664.07 43.63C663.277 45.03 662.88 46.5467 662.88 48.18C662.88 50.0467 663.603 51.7033 665.05 53.15C666.497 54.5967 668.643 55.4367 671.49 55.67L677.16 56.16C680.66 56.44 683.67 57.1867 686.19 58.4C688.757 59.5667 690.717 61.1533 692.07 63.16C693.47 65.12 694.17 67.4767 694.17 70.23C694.17 73.3567 693.33 76.1333 691.65 78.56C689.97 80.9867 687.613 82.8767 684.58 84.23C681.547 85.5833 678.023 86.26 674.01 86.26ZM727.312 85V73.8H726.192V60.85C726.192 58.2833 725.515 56.3467 724.162 55.04C722.855 53.7333 720.918 53.08 718.352 53.08C716.905 53.08 715.412 53.1033 713.872 53.15C712.332 53.1967 710.862 53.2433 709.462 53.29C708.062 53.3367 706.848 53.4067 705.822 53.5V47.62C706.848 47.5267 707.922 47.4567 709.042 47.41C710.208 47.3167 711.398 47.27 712.612 47.27C713.825 47.2233 714.992 47.2 716.112 47.2C719.938 47.2 723.065 47.6667 725.492 48.6C727.918 49.4867 729.715 50.9567 730.882 53.01C732.048 55.0633 732.632 57.84 732.632 61.34V85H727.312ZM715.062 85.98C712.262 85.98 709.835 85.5133 707.782 84.58C705.775 83.6 704.212 82.2 703.092 80.38C702.018 78.56 701.482 76.3667 701.482 73.8C701.482 71.14 702.065 68.9233 703.232 67.15C704.445 65.3767 706.195 64.0467 708.482 63.16C710.768 62.2267 713.522 61.76 716.742 61.76H726.892V66.8H716.462C713.755 66.8 711.678 67.4533 710.232 68.76C708.785 70.0667 708.062 71.7467 708.062 73.8C708.062 75.8533 708.785 77.51 710.232 78.77C711.678 80.03 713.755 80.66 716.462 80.66C718.048 80.66 719.565 80.38 721.012 79.82C722.458 79.2133 723.648 78.2333 724.582 76.88C725.562 75.48 726.098 73.5667 726.192 71.14L728.012 73.8C727.778 76.46 727.125 78.7 726.052 80.52C725.025 82.2933 723.578 83.6467 721.712 84.58C719.892 85.5133 717.675 85.98 715.062 85.98ZM759.525 85.42C756.725 85.42 754.299 85.0233 752.245 84.23C750.239 83.4367 748.675 82.0833 747.555 80.17C746.482 78.21 745.945 75.5733 745.945 72.26V36.28H752.385V73.1C752.385 75.1067 752.922 76.67 753.995 77.79C755.115 78.8633 756.679 79.4 758.685 79.4H765.265V85.42H759.525ZM739.505 52.66V47.62H765.265V52.66H739.505ZM776.59 85V47.62H783.31V85H776.59ZM770.85 52.94V47.62H783.31V52.94H770.85ZM778.48 41.6C776.987 41.6 775.867 41.2033 775.12 40.41C774.42 39.6167 774.07 38.6133 774.07 37.4C774.07 36.1867 774.42 35.1833 775.12 34.39C775.867 33.5967 776.987 33.2 778.48 33.2C779.973 33.2 781.07 33.5967 781.77 34.39C782.517 35.1833 782.89 36.1867 782.89 37.4C782.89 38.6133 782.517 39.6167 781.77 40.41C781.07 41.2033 779.973 41.6 778.48 41.6ZM808.553 86.12C803.653 86.12 799.85 85.07 797.143 82.97C794.483 80.87 793.107 78 793.013 74.36H799.313C799.407 75.8067 800.13 77.1833 801.483 78.49C802.883 79.75 805.24 80.38 808.553 80.38C811.54 80.38 813.827 79.7967 815.413 78.63C817 77.4167 817.793 75.9467 817.793 74.22C817.793 72.68 817.21 71.49 816.043 70.65C814.877 69.7633 812.987 69.18 810.373 68.9L806.313 68.48C802.767 68.1067 799.873 67.0567 797.633 65.33C795.393 63.5567 794.273 61.0833 794.273 57.91C794.273 55.53 794.88 53.5 796.093 51.82C797.307 50.0933 798.987 48.7867 801.133 47.9C803.28 46.9667 805.753 46.5 808.553 46.5C812.753 46.5 816.16 47.4333 818.773 49.3C821.387 51.1667 822.74 53.9433 822.833 57.63H816.533C816.487 56.1367 815.787 54.8767 814.433 53.85C813.127 52.7767 811.167 52.24 808.553 52.24C805.94 52.24 803.957 52.7767 802.603 53.85C801.25 54.9233 800.573 56.2767 800.573 57.91C800.573 59.31 801.04 60.43 801.973 61.27C802.953 62.11 804.54 62.6467 806.733 62.88L810.793 63.3C814.807 63.72 818.027 64.84 820.453 66.66C822.88 68.4333 824.093 70.9533 824.093 74.22C824.093 76.5533 823.417 78.63 822.063 80.45C820.757 82.2233 818.937 83.6233 816.603 84.65C814.27 85.63 811.587 86.12 808.553 86.12ZM834.813 85V45.73C834.813 41.5767 835.909 38.52 838.103 36.56C840.296 34.6 843.516 33.62 847.763 33.62H852.383V39.22H846.643C844.916 39.22 843.586 39.71 842.653 40.69C841.719 41.6233 841.253 42.93 841.253 44.61V85H834.813ZM829.633 53.08V48.04H853.083V53.08H829.633ZM882.829 85V73.8H881.709V60.85C881.709 58.2833 881.033 56.3467 879.679 55.04C878.373 53.7333 876.436 53.08 873.869 53.08C872.423 53.08 870.929 53.1033 869.389 53.15C867.849 53.1967 866.379 53.2433 864.979 53.29C863.579 53.3367 862.366 53.4067 861.339 53.5V47.62C862.366 47.5267 863.439 47.4567 864.559 47.41C865.726 47.3167 866.916 47.27 868.129 47.27C869.343 47.2233 870.509 47.2 871.629 47.2C875.456 47.2 878.583 47.6667 881.009 48.6C883.436 49.4867 885.233 50.9567 886.399 53.01C887.566 55.0633 888.149 57.84 888.149 61.34V85H882.829ZM870.579 85.98C867.779 85.98 865.353 85.5133 863.299 84.58C861.293 83.6 859.729 82.2 858.609 80.38C857.536 78.56 856.999 76.3667 856.999 73.8C856.999 71.14 857.583 68.9233 858.749 67.15C859.963 65.3767 861.713 64.0467 863.999 63.16C866.286 62.2267 869.039 61.76 872.259 61.76H882.409V66.8H871.979C869.273 66.8 867.196 67.4533 865.749 68.76C864.303 70.0667 863.579 71.7467 863.579 73.8C863.579 75.8533 864.303 77.51 865.749 78.77C867.196 80.03 869.273 80.66 871.979 80.66C873.566 80.66 875.083 80.38 876.529 79.82C877.976 79.2133 879.166 78.2333 880.099 76.88C881.079 75.48 881.616 73.5667 881.709 71.14L883.529 73.8C883.296 76.46 882.643 78.7 881.569 80.52C880.543 82.2933 879.096 83.6467 877.229 84.58C875.409 85.5133 873.193 85.98 870.579 85.98ZM916.513 86.26C913.293 86.26 910.493 85.7 908.113 84.58C905.78 83.46 903.843 81.9667 902.303 80.1C900.763 78.1867 899.596 76.0867 898.803 73.8C898.056 71.5133 897.683 69.2267 897.683 66.94V65.68C897.683 63.3 898.056 60.9667 898.803 58.68C899.596 56.3933 900.763 54.34 902.303 52.52C903.89 50.6533 905.85 49.16 908.183 48.04C910.516 46.92 913.246 46.36 916.373 46.36C919.5 46.36 922.3 46.9433 924.773 48.11C927.293 49.2767 929.3 50.9333 930.793 53.08C932.333 55.18 933.196 57.6767 933.383 60.57H926.943C926.616 58.2367 925.543 56.3 923.723 54.76C921.903 53.1733 919.453 52.38 916.373 52.38C913.713 52.38 911.496 52.9867 909.723 54.2C907.95 55.4133 906.62 57.07 905.733 59.17C904.846 61.27 904.403 63.65 904.403 66.31C904.403 68.8767 904.846 71.2333 905.733 73.38C906.62 75.48 907.95 77.16 909.723 78.42C911.543 79.6333 913.806 80.24 916.513 80.24C918.613 80.24 920.433 79.8667 921.973 79.12C923.513 78.3733 924.75 77.37 925.683 76.11C926.616 74.85 927.176 73.4267 927.363 71.84H933.803C933.663 74.78 932.8 77.3233 931.213 79.47C929.673 81.6167 927.62 83.2967 925.053 84.51C922.533 85.6767 919.686 86.26 916.513 86.26ZM915.953 101.94C915.066 101.94 914.203 101.87 913.363 101.73C912.57 101.637 911.846 101.497 911.193 101.31V96.83C911.846 97.0167 912.593 97.1567 913.433 97.25C914.32 97.39 915.16 97.46 915.953 97.46C917.446 97.46 918.543 97.2033 919.243 96.69C919.943 96.2233 920.293 95.6167 920.293 94.87C920.293 94.1233 919.99 93.5167 919.383 93.05C918.823 92.63 917.866 92.42 916.513 92.42H913.853V84.3H917.913V90.95L915.043 88.36H916.163C918.823 88.36 920.97 88.8967 922.603 89.97C924.236 91.09 925.053 92.6767 925.053 94.73C925.053 96.7367 924.236 98.44 922.603 99.84C921.016 101.24 918.8 101.94 915.953 101.94ZM965.544 85V73.8H964.424V60.85C964.424 58.2833 963.747 56.3467 962.394 55.04C961.087 53.7333 959.151 53.08 956.584 53.08C955.137 53.08 953.644 53.1033 952.104 53.15C950.564 53.1967 949.094 53.2433 947.694 53.29C946.294 53.3367 945.081 53.4067 944.054 53.5V47.62C945.081 47.5267 946.154 47.4567 947.274 47.41C948.441 47.3167 949.631 47.27 950.844 47.27C952.057 47.2233 953.224 47.2 954.344 47.2C958.171 47.2 961.297 47.6667 963.724 48.6C966.151 49.4867 967.947 50.9567 969.114 53.01C970.281 55.0633 970.864 57.84 970.864 61.34V85H965.544ZM953.294 85.98C950.494 85.98 948.067 85.5133 946.014 84.58C944.007 83.6 942.444 82.2 941.324 80.38C940.251 78.56 939.714 76.3667 939.714 73.8C939.714 71.14 940.297 68.9233 941.464 67.15C942.677 65.3767 944.427 64.0467 946.714 63.16C949.001 62.2267 951.754 61.76 954.974 61.76H965.124V66.8H954.694C951.987 66.8 949.911 67.4533 948.464 68.76C947.017 70.0667 946.294 71.7467 946.294 73.8C946.294 75.8533 947.017 77.51 948.464 78.77C949.911 80.03 951.987 80.66 954.694 80.66C956.281 80.66 957.797 80.38 959.244 79.82C960.691 79.2133 961.881 78.2333 962.814 76.88C963.794 75.48 964.331 73.5667 964.424 71.14L966.244 73.8C966.011 76.46 965.357 78.7 964.284 80.52C963.257 82.2933 961.811 83.6467 959.944 84.58C958.124 85.5133 955.907 85.98 953.294 85.98ZM960.784 40.13C959.617 40.13 958.614 39.9667 957.774 39.64C956.934 39.2667 956.164 38.8467 955.464 38.38C954.764 37.9133 954.064 37.5167 953.364 37.19C952.664 36.8167 951.871 36.63 950.984 36.63C950.004 36.63 949.094 36.8867 948.254 37.4C947.461 37.8667 946.737 38.52 946.084 39.36L944.964 34.88C945.664 33.9933 946.527 33.2467 947.554 32.64C948.627 32.0333 949.841 31.73 951.194 31.73C952.361 31.73 953.364 31.9167 954.204 32.29C955.044 32.6167 955.814 33.0133 956.514 33.48C957.214 33.9467 957.914 34.3667 958.614 34.74C959.314 35.0667 960.107 35.23 960.994 35.23C961.974 35.23 962.884 34.9967 963.724 34.53C964.564 34.0167 965.311 33.34 965.964 32.5L967.084 36.98C966.384 37.8667 965.497 38.6133 964.424 39.22C963.351 39.8267 962.137 40.13 960.784 40.13ZM1000.42 86.26C997.151 86.26 994.281 85.7 991.808 84.58C989.334 83.46 987.234 81.99 985.508 80.17C983.828 78.3033 982.544 76.2267 981.658 73.94C980.818 71.6533 980.398 69.32 980.398 66.94V65.68C980.398 63.3 980.841 60.9667 981.728 58.68C982.614 56.3467 983.921 54.27 985.648 52.45C987.374 50.5833 989.474 49.1133 991.948 48.04C994.421 46.92 997.244 46.36 1000.42 46.36C1003.59 46.36 1006.41 46.92 1008.89 48.04C1011.36 49.1133 1013.46 50.5833 1015.19 52.45C1016.91 54.27 1018.22 56.3467 1019.11 58.68C1019.99 60.9667 1020.44 63.3 1020.44 65.68V66.94C1020.44 69.32 1019.99 71.6533 1019.11 73.94C1018.27 76.2267 1016.98 78.3033 1015.26 80.17C1013.58 81.99 1011.5 83.46 1009.03 84.58C1006.55 85.7 1003.68 86.26 1000.42 86.26ZM1000.42 80.24C1003.22 80.24 1005.6 79.6333 1007.56 78.42C1009.56 77.16 1011.08 75.48 1012.11 73.38C1013.18 71.28 1013.72 68.9233 1013.72 66.31C1013.72 63.65 1013.18 61.27 1012.11 59.17C1011.03 57.07 1009.49 55.4133 1007.49 54.2C1005.53 52.9867 1003.17 52.38 1000.42 52.38C997.711 52.38 995.354 52.9867 993.348 54.2C991.341 55.4133 989.801 57.07 988.728 59.17C987.654 61.27 987.118 63.65 987.118 66.31C987.118 68.9233 987.631 71.28 988.658 73.38C989.731 75.48 991.248 77.16 993.208 78.42C995.214 79.6333 997.618 80.24 1000.42 80.24ZM679.96 156.33C675.387 156.33 671.397 155.583 667.99 154.09C664.583 152.55 661.76 150.497 659.52 147.93C657.327 145.363 655.693 142.517 654.62 139.39C653.547 136.263 653.01 133.137 653.01 130.01V128.47C653.01 125.25 653.547 122.1 654.62 119.02C655.693 115.94 657.303 113.14 659.45 110.62C661.643 108.1 664.35 106.093 667.57 104.6C670.837 103.107 674.593 102.36 678.84 102.36C683.46 102.36 687.543 103.223 691.09 104.95C694.637 106.63 697.483 108.987 699.63 112.02C701.777 115.007 703.013 118.483 703.34 122.45H691.86C691.58 120.583 690.833 118.95 689.62 117.55C688.453 116.15 686.937 115.053 685.07 114.26C683.25 113.467 681.173 113.07 678.84 113.07C676.6 113.07 674.593 113.467 672.82 114.26C671.093 115.053 669.6 116.173 668.34 117.62C667.127 119.067 666.193 120.793 665.54 122.8C664.933 124.76 664.63 126.93 664.63 129.31C664.63 131.783 664.957 134.047 665.61 136.1C666.31 138.107 667.313 139.857 668.62 141.35C669.927 142.797 671.537 143.917 673.45 144.71C675.41 145.503 677.58 145.9 679.96 145.9C683.133 145.9 685.887 145.247 688.22 143.94C690.553 142.633 692.233 140.907 693.26 138.76L691.86 146.6V134.42H702.43V145.34C700.237 148.887 697.203 151.617 693.33 153.53C689.503 155.397 685.047 156.33 679.96 156.33ZM678.49 136.66V128.4H706.63V136.66H678.49ZM736.591 155V143.66H734.701V131.34C734.701 129.38 734.234 127.91 733.301 126.93C732.367 125.95 730.874 125.46 728.821 125.46C727.794 125.46 726.441 125.483 724.761 125.53C723.081 125.577 721.354 125.647 719.581 125.74C717.807 125.833 716.197 125.927 714.751 126.02V116.57C715.824 116.477 717.084 116.383 718.531 116.29C719.977 116.197 721.471 116.127 723.011 116.08C724.551 116.033 725.997 116.01 727.351 116.01C731.271 116.01 734.561 116.57 737.221 117.69C739.927 118.81 741.981 120.513 743.381 122.8C744.781 125.04 745.481 127.933 745.481 131.48V155H736.591ZM724.341 155.98C721.587 155.98 719.161 155.49 717.061 154.51C715.007 153.53 713.397 152.13 712.231 150.31C711.064 148.443 710.481 146.227 710.481 143.66C710.481 140.86 711.204 138.573 712.651 136.8C714.097 134.98 716.127 133.65 718.741 132.81C721.354 131.923 724.364 131.48 727.771 131.48H735.961V137.71H727.701C725.741 137.71 724.224 138.2 723.151 139.18C722.124 140.113 721.611 141.397 721.611 143.03C721.611 144.57 722.124 145.83 723.151 146.81C724.224 147.743 725.741 148.21 727.701 148.21C728.961 148.21 730.081 148 731.061 147.58C732.087 147.113 732.927 146.343 733.581 145.27C734.234 144.197 734.607 142.703 734.701 140.79L737.361 143.59C737.127 146.25 736.474 148.49 735.401 150.31C734.374 152.13 732.927 153.53 731.061 154.51C729.241 155.49 727.001 155.98 724.341 155.98ZM754.983 155V116.64H763.873V133.09H763.663C763.663 127.677 764.806 123.5 767.093 120.56C769.426 117.62 772.786 116.15 777.173 116.15H778.643V125.81H775.843C772.763 125.81 770.383 126.65 768.703 128.33C767.023 129.963 766.183 132.343 766.183 135.47V155H754.983ZM807.343 155V143.66H805.453V131.34C805.453 129.38 804.986 127.91 804.053 126.93C803.119 125.95 801.626 125.46 799.573 125.46C798.546 125.46 797.193 125.483 795.513 125.53C793.833 125.577 792.106 125.647 790.333 125.74C788.559 125.833 786.949 125.927 785.503 126.02V116.57C786.576 116.477 787.836 116.383 789.283 116.29C790.729 116.197 792.223 116.127 793.763 116.08C795.303 116.033 796.749 116.01 798.103 116.01C802.023 116.01 805.313 116.57 807.973 117.69C810.679 118.81 812.733 120.513 814.133 122.8C815.533 125.04 816.233 127.933 816.233 131.48V155H807.343ZM795.093 155.98C792.339 155.98 789.913 155.49 787.812 154.51C785.759 153.53 784.149 152.13 782.983 150.31C781.816 148.443 781.233 146.227 781.233 143.66C781.233 140.86 781.956 138.573 783.403 136.8C784.849 134.98 786.879 133.65 789.493 132.81C792.106 131.923 795.116 131.48 798.523 131.48H806.713V137.71H798.453C796.493 137.71 794.976 138.2 793.903 139.18C792.876 140.113 792.363 141.397 792.363 143.03C792.363 144.57 792.876 145.83 793.903 146.81C794.976 147.743 796.493 148.21 798.453 148.21C799.713 148.21 800.833 148 801.813 147.58C802.839 147.113 803.679 146.343 804.333 145.27C804.986 144.197 805.359 142.703 805.453 140.79L808.113 143.59C807.879 146.25 807.226 148.49 806.153 150.31C805.126 152.13 803.679 153.53 801.813 154.51C799.993 155.49 797.753 155.98 795.093 155.98ZM825.735 155V116.64H834.625V133.09H833.995C833.995 129.17 834.485 125.903 835.465 123.29C836.492 120.677 838.032 118.717 840.085 117.41C842.138 116.103 844.635 115.45 847.575 115.45H848.065C852.545 115.45 855.952 116.92 858.285 119.86C860.665 122.753 861.855 127.163 861.855 133.09V155H850.655V132.46C850.655 130.407 850.048 128.727 848.835 127.42C847.622 126.113 845.988 125.46 843.935 125.46C841.835 125.46 840.132 126.137 838.825 127.49C837.565 128.797 836.935 130.523 836.935 132.67V155H825.735ZM888.829 155.49C884.956 155.49 881.829 155.023 879.449 154.09C877.069 153.11 875.319 151.5 874.199 149.26C873.126 146.973 872.589 143.893 872.589 140.02V106.28H883.019V140.44C883.019 142.26 883.486 143.66 884.419 144.64C885.399 145.573 886.776 146.04 888.549 146.04H894.219V155.49H888.829ZM866.779 124.83V116.64H894.219V124.83H866.779ZM903.571 155V116.64H914.771V155H903.571ZM898.461 124.9V116.64H914.771V124.9H898.461ZM907.911 112.86C905.811 112.86 904.247 112.323 903.221 111.25C902.241 110.13 901.751 108.73 901.751 107.05C901.751 105.323 902.241 103.923 903.221 102.85C904.247 101.73 905.811 101.17 907.911 101.17C910.011 101.17 911.551 101.73 912.531 102.85C913.557 103.923 914.071 105.323 914.071 107.05C914.071 108.73 913.557 110.13 912.531 111.25C911.551 112.323 910.011 112.86 907.911 112.86ZM940.95 156.26C938.243 156.26 935.77 155.77 933.53 154.79C931.336 153.81 929.423 152.457 927.79 150.73C926.156 148.957 924.896 146.88 924.01 144.5C923.17 142.12 922.75 139.553 922.75 136.8V135.19C922.75 132.437 923.146 129.87 923.94 127.49C924.78 125.11 925.97 123.033 927.51 121.26C929.096 119.44 930.986 118.04 933.18 117.06C935.373 116.033 937.823 115.52 940.53 115.52C943.61 115.52 946.27 116.197 948.51 117.55C950.75 118.857 952.5 120.817 953.76 123.43C955.02 125.997 955.72 129.17 955.86 132.95L952.92 130.22V103.9H964.19V155H955.3V139.11H956.84C956.7 142.75 955.93 145.853 954.53 148.42C953.176 150.987 951.333 152.947 949 154.3C946.666 155.607 943.983 156.26 940.95 156.26ZM943.75 146.88C945.476 146.88 947.04 146.507 948.44 145.76C949.886 144.967 951.03 143.823 951.87 142.33C952.756 140.837 953.2 139.04 953.2 136.94V134.35C953.2 132.297 952.756 130.57 951.87 129.17C950.983 127.77 949.816 126.697 948.37 125.95C946.923 125.203 945.36 124.83 943.68 124.83C941.813 124.83 940.133 125.32 938.64 126.3C937.193 127.233 936.05 128.54 935.21 130.22C934.37 131.853 933.95 133.767 933.95 135.96C933.95 138.2 934.37 140.137 935.21 141.77C936.05 143.403 937.216 144.663 938.71 145.55C940.203 146.437 941.883 146.88 943.75 146.88ZM997.518 155V143.66H995.628V131.34C995.628 129.38 995.162 127.91 994.228 126.93C993.295 125.95 991.802 125.46 989.748 125.46C988.722 125.46 987.368 125.483 985.688 125.53C984.008 125.577 982.282 125.647 980.508 125.74C978.735 125.833 977.125 125.927 975.678 126.02V116.57C976.752 116.477 978.012 116.383 979.458 116.29C980.905 116.197 982.398 116.127 983.938 116.08C985.478 116.033 986.925 116.01 988.278 116.01C992.198 116.01 995.488 116.57 998.148 117.69C1000.85 118.81 1002.91 120.513 1004.31 122.8C1005.71 125.04 1006.41 127.933 1006.41 131.48V155H997.518ZM985.268 155.98C982.515 155.98 980.088 155.49 977.988 154.51C975.935 153.53 974.325 152.13 973.158 150.31C971.992 148.443 971.408 146.227 971.408 143.66C971.408 140.86 972.132 138.573 973.578 136.8C975.025 134.98 977.055 133.65 979.668 132.81C982.282 131.923 985.292 131.48 988.698 131.48H996.888V137.71H988.628C986.668 137.71 985.152 138.2 984.078 139.18C983.052 140.113 982.538 141.397 982.538 143.03C982.538 144.57 983.052 145.83 984.078 146.81C985.152 147.743 986.668 148.21 988.628 148.21C989.888 148.21 991.008 148 991.988 147.58C993.015 147.113 993.855 146.343 994.508 145.27C995.162 144.197 995.535 142.703 995.628 140.79L998.288 143.59C998.055 146.25 997.402 148.49 996.328 150.31C995.302 152.13 993.855 153.53 991.988 154.51C990.168 155.49 987.928 155.98 985.268 155.98Z" fill="white"></path><path d="M1234.88 67.22V61.2H1246.29C1248.72 61.2 1250.72 60.7333 1252.31 59.8C1253.9 58.82 1255.09 57.5133 1255.88 55.88C1256.72 54.2467 1257.14 52.4267 1257.14 50.42C1257.14 48.3667 1256.72 46.5233 1255.88 44.89C1255.09 43.2567 1253.9 41.9733 1252.31 41.04C1250.72 40.1067 1248.72 39.64 1246.29 39.64H1234.88V33.62H1245.03C1249.23 33.62 1252.73 34.2967 1255.53 35.65C1258.38 36.9567 1260.52 38.8233 1261.97 41.25C1263.42 43.6767 1264.14 46.5467 1264.14 49.86V50.98C1264.14 54.2467 1263.42 57.1167 1261.97 59.59C1260.52 62.0167 1258.38 63.9067 1255.53 65.26C1252.73 66.5667 1249.23 67.22 1245.03 67.22H1234.88ZM1229.42 85V33.62H1236.28V85H1229.42ZM1273.35 85V47.62H1278.67V63.02H1278.39C1278.39 57.56 1279.58 53.57 1281.96 51.05C1284.39 48.4833 1288.01 47.2 1292.81 47.2H1294.07V53.22H1291.69C1287.96 53.22 1285.09 54.2233 1283.08 56.23C1281.08 58.19 1280.07 61.0367 1280.07 64.77V85H1273.35ZM1303.88 85V47.62H1310.6V85H1303.88ZM1298.14 52.94V47.62H1310.6V52.94H1298.14ZM1305.77 41.6C1304.28 41.6 1303.16 41.2033 1302.41 40.41C1301.71 39.6167 1301.36 38.6133 1301.36 37.4C1301.36 36.1867 1301.71 35.1833 1302.41 34.39C1303.16 33.5967 1304.28 33.2 1305.77 33.2C1307.27 33.2 1308.36 33.5967 1309.06 34.39C1309.81 35.1833 1310.18 36.1867 1310.18 37.4C1310.18 38.6133 1309.81 39.6167 1309.06 40.41C1308.36 41.2033 1307.27 41.6 1305.77 41.6ZM1331.58 85L1318.84 47.62H1325.84L1338.3 85H1331.58ZM1333.26 85V79.68H1341.38V85H1333.26ZM1336.48 85L1347.33 47.62H1353.91L1342.85 85H1336.48ZM1385.03 85V73.8H1383.91V60.85C1383.91 58.2833 1383.24 56.3467 1381.88 55.04C1380.58 53.7333 1378.64 53.08 1376.07 53.08C1374.63 53.08 1373.13 53.1033 1371.59 53.15C1370.05 53.1967 1368.58 53.2433 1367.18 53.29C1365.78 53.3367 1364.57 53.4067 1363.54 53.5V47.62C1364.57 47.5267 1365.64 47.4567 1366.76 47.41C1367.93 47.3167 1369.12 47.27 1370.33 47.27C1371.55 47.2233 1372.71 47.2 1373.83 47.2C1377.66 47.2 1380.79 47.6667 1383.21 48.6C1385.64 49.4867 1387.44 50.9567 1388.6 53.01C1389.77 55.0633 1390.35 57.84 1390.35 61.34V85H1385.03ZM1372.78 85.98C1369.98 85.98 1367.56 85.5133 1365.5 84.58C1363.5 83.6 1361.93 82.2 1360.81 80.38C1359.74 78.56 1359.2 76.3667 1359.2 73.8C1359.2 71.14 1359.79 68.9233 1360.95 67.15C1362.17 65.3767 1363.92 64.0467 1366.2 63.16C1368.49 62.2267 1371.24 61.76 1374.46 61.76H1384.61V66.8H1374.18C1371.48 66.8 1369.4 67.4533 1367.95 68.76C1366.51 70.0667 1365.78 71.7467 1365.78 73.8C1365.78 75.8533 1366.51 77.51 1367.95 78.77C1369.4 80.03 1371.48 80.66 1374.18 80.66C1375.77 80.66 1377.29 80.38 1378.73 79.82C1380.18 79.2133 1381.37 78.2333 1382.3 76.88C1383.28 75.48 1383.82 73.5667 1383.91 71.14L1385.73 73.8C1385.5 76.46 1384.85 78.7 1383.77 80.52C1382.75 82.2933 1381.3 83.6467 1379.43 84.58C1377.61 85.5133 1375.4 85.98 1372.78 85.98ZM1418.72 86.26C1415.5 86.26 1412.7 85.7 1410.32 84.58C1407.98 83.46 1406.05 81.9667 1404.51 80.1C1402.97 78.1867 1401.8 76.0867 1401.01 73.8C1400.26 71.5133 1399.89 69.2267 1399.89 66.94V65.68C1399.89 63.3 1400.26 60.9667 1401.01 58.68C1401.8 56.3933 1402.97 54.34 1404.51 52.52C1406.09 50.6533 1408.05 49.16 1410.39 48.04C1412.72 46.92 1415.45 46.36 1418.58 46.36C1421.7 46.36 1424.5 46.9433 1426.98 48.11C1429.5 49.2767 1431.5 50.9333 1433 53.08C1434.54 55.18 1435.4 57.6767 1435.59 60.57H1429.15C1428.82 58.2367 1427.75 56.3 1425.93 54.76C1424.11 53.1733 1421.66 52.38 1418.58 52.38C1415.92 52.38 1413.7 52.9867 1411.93 54.2C1410.15 55.4133 1408.82 57.07 1407.94 59.17C1407.05 61.27 1406.61 63.65 1406.61 66.31C1406.61 68.8767 1407.05 71.2333 1407.94 73.38C1408.82 75.48 1410.15 77.16 1411.93 78.42C1413.75 79.6333 1416.01 80.24 1418.72 80.24C1420.82 80.24 1422.64 79.8667 1424.18 79.12C1425.72 78.3733 1426.95 77.37 1427.89 76.11C1428.82 74.85 1429.38 73.4267 1429.57 71.84H1436.01C1435.87 74.78 1435 77.3233 1433.42 79.47C1431.88 81.6167 1429.82 83.2967 1427.26 84.51C1424.74 85.6767 1421.89 86.26 1418.72 86.26ZM1446.96 85V47.62H1453.68V85H1446.96ZM1441.22 52.94V47.62H1453.68V52.94H1441.22ZM1448.85 41.6C1447.36 41.6 1446.24 41.2033 1445.49 40.41C1444.79 39.6167 1444.44 38.6133 1444.44 37.4C1444.44 36.1867 1444.79 35.1833 1445.49 34.39C1446.24 33.5967 1447.36 33.2 1448.85 33.2C1450.34 33.2 1451.44 33.5967 1452.14 34.39C1452.89 35.1833 1453.26 36.1867 1453.26 37.4C1453.26 38.6133 1452.89 39.6167 1452.14 40.41C1451.44 41.2033 1450.34 41.6 1448.85 41.6ZM1482.28 86.26C1479.62 86.26 1477.17 85.77 1474.93 84.79C1472.69 83.81 1470.73 82.4333 1469.05 80.66C1467.42 78.8867 1466.14 76.8333 1465.2 74.5C1464.32 72.1667 1463.87 69.6467 1463.87 66.94V65.68C1463.87 63.02 1464.32 60.5233 1465.2 58.19C1466.09 55.8567 1467.33 53.8033 1468.91 52.03C1470.55 50.2567 1472.46 48.88 1474.65 47.9C1476.89 46.8733 1479.37 46.36 1482.07 46.36C1484.92 46.36 1487.51 46.9667 1489.84 48.18C1492.18 49.3467 1494.09 51.19 1495.58 53.71C1497.08 56.23 1497.92 59.4967 1498.1 63.51L1495.3 59.03V33.9H1502.02V85H1496.7V68.41H1498.66C1498.48 72.6567 1497.59 76.11 1496 78.77C1494.42 81.3833 1492.41 83.2967 1489.98 84.51C1487.6 85.6767 1485.04 86.26 1482.28 86.26ZM1483.19 80.38C1485.48 80.38 1487.56 79.8667 1489.42 78.84C1491.29 77.8133 1492.78 76.3433 1493.9 74.43C1495.02 72.47 1495.58 70.1833 1495.58 67.57V64.35C1495.58 61.7833 1495 59.6133 1493.83 57.84C1492.71 56.02 1491.2 54.6433 1489.28 53.71C1487.42 52.73 1485.36 52.24 1483.12 52.24C1480.65 52.24 1478.46 52.8233 1476.54 53.99C1474.68 55.1567 1473.21 56.79 1472.13 58.89C1471.11 60.99 1470.59 63.4633 1470.59 66.31C1470.59 69.1567 1471.13 71.6533 1472.2 73.8C1473.28 75.9 1474.77 77.5333 1476.68 78.7C1478.6 79.82 1480.77 80.38 1483.19 80.38ZM1537.54 85V73.8H1536.42V60.85C1536.42 58.2833 1535.75 56.3467 1534.39 55.04C1533.09 53.7333 1531.15 53.08 1528.58 53.08C1527.14 53.08 1525.64 53.1033 1524.1 53.15C1522.56 53.1967 1521.09 53.2433 1519.69 53.29C1518.29 53.3367 1517.08 53.4067 1516.05 53.5V47.62C1517.08 47.5267 1518.15 47.4567 1519.27 47.41C1520.44 47.3167 1521.63 47.27 1522.84 47.27C1524.06 47.2233 1525.22 47.2 1526.34 47.2C1530.17 47.2 1533.3 47.6667 1535.72 48.6C1538.15 49.4867 1539.95 50.9567 1541.11 53.01C1542.28 55.0633 1542.86 57.84 1542.86 61.34V85H1537.54ZM1525.29 85.98C1522.49 85.98 1520.07 85.5133 1518.01 84.58C1516.01 83.6 1514.44 82.2 1513.32 80.38C1512.25 78.56 1511.71 76.3667 1511.71 73.8C1511.71 71.14 1512.3 68.9233 1513.46 67.15C1514.68 65.3767 1516.43 64.0467 1518.71 63.16C1521 62.2267 1523.75 61.76 1526.97 61.76H1537.12V66.8H1526.69C1523.99 66.8 1521.91 67.4533 1520.46 68.76C1519.02 70.0667 1518.29 71.7467 1518.29 73.8C1518.29 75.8533 1519.02 77.51 1520.46 78.77C1521.91 80.03 1523.99 80.66 1526.69 80.66C1528.28 80.66 1529.8 80.38 1531.24 79.82C1532.69 79.2133 1533.88 78.2333 1534.81 76.88C1535.79 75.48 1536.33 73.5667 1536.42 71.14L1538.24 73.8C1538.01 76.46 1537.36 78.7 1536.28 80.52C1535.26 82.2933 1533.81 83.6467 1531.94 84.58C1530.12 85.5133 1527.91 85.98 1525.29 85.98ZM1570.81 86.26C1568.15 86.26 1565.7 85.77 1563.46 84.79C1561.22 83.81 1559.26 82.4333 1557.58 80.66C1555.94 78.8867 1554.66 76.8333 1553.73 74.5C1552.84 72.1667 1552.4 69.6467 1552.4 66.94V65.68C1552.4 63.02 1552.84 60.5233 1553.73 58.19C1554.61 55.8567 1555.85 53.8033 1557.44 52.03C1559.07 50.2567 1560.98 48.88 1563.18 47.9C1565.42 46.8733 1567.89 46.36 1570.6 46.36C1573.44 46.36 1576.03 46.9667 1578.37 48.18C1580.7 49.3467 1582.61 51.19 1584.11 53.71C1585.6 56.23 1586.44 59.4967 1586.63 63.51L1583.83 59.03V33.9H1590.55V85H1585.23V68.41H1587.19C1587 72.6567 1586.11 76.11 1584.53 78.77C1582.94 81.3833 1580.93 83.2967 1578.51 84.51C1576.13 85.6767 1573.56 86.26 1570.81 86.26ZM1571.72 80.38C1574 80.38 1576.08 79.8667 1577.95 78.84C1579.81 77.8133 1581.31 76.3433 1582.43 74.43C1583.55 72.47 1584.11 70.1833 1584.11 67.57V64.35C1584.11 61.7833 1583.52 59.6133 1582.36 57.84C1581.24 56.02 1579.72 54.6433 1577.81 53.71C1575.94 52.73 1573.89 52.24 1571.65 52.24C1569.17 52.24 1566.98 52.8233 1565.07 53.99C1563.2 55.1567 1561.73 56.79 1560.66 58.89C1559.63 60.99 1559.12 63.4633 1559.12 66.31C1559.12 69.1567 1559.65 71.6533 1560.73 73.8C1561.8 75.9 1563.29 77.5333 1565.21 78.7C1567.12 79.82 1569.29 80.38 1571.72 80.38ZM1619.35 86.26C1616.08 86.26 1613.26 85.7 1610.88 84.58C1608.5 83.46 1606.56 81.99 1605.07 80.17C1603.58 78.3033 1602.46 76.2267 1601.71 73.94C1601.01 71.6533 1600.66 69.32 1600.66 66.94V65.68C1600.66 63.2533 1601.01 60.8967 1601.71 58.61C1602.46 56.3233 1603.58 54.27 1605.07 52.45C1606.56 50.5833 1608.45 49.1133 1610.74 48.04C1613.07 46.92 1615.8 46.36 1618.93 46.36C1622.99 46.36 1626.33 47.2467 1628.94 49.02C1631.6 50.7467 1633.56 52.9867 1634.82 55.74C1636.13 58.4933 1636.78 61.4333 1636.78 64.56V67.57H1603.6V62.53H1631.88L1630.34 65.26C1630.34 62.6 1629.92 60.3133 1629.08 58.4C1628.24 56.44 1626.98 54.9233 1625.3 53.85C1623.62 52.7767 1621.5 52.24 1618.93 52.24C1616.27 52.24 1614.05 52.8467 1612.28 54.06C1610.55 55.2733 1609.25 56.93 1608.36 59.03C1607.52 61.13 1607.1 63.5567 1607.1 66.31C1607.1 68.97 1607.52 71.3733 1608.36 73.52C1609.25 75.62 1610.6 77.3 1612.42 78.56C1614.24 79.7733 1616.55 80.38 1619.35 80.38C1622.29 80.38 1624.67 79.7267 1626.49 78.42C1628.36 77.1133 1629.48 75.5967 1629.85 73.87H1636.15C1635.64 76.4367 1634.61 78.6533 1633.07 80.52C1631.53 82.3867 1629.59 83.81 1627.26 84.79C1624.93 85.77 1622.29 86.26 1619.35 86.26ZM1237.82 140.37V130.43H1246.99C1248.76 130.43 1250.28 130.08 1251.54 129.38C1252.85 128.68 1253.85 127.7 1254.55 126.44C1255.25 125.133 1255.6 123.64 1255.6 121.96C1255.6 120.187 1255.25 118.67 1254.55 117.41C1253.85 116.103 1252.85 115.123 1251.54 114.47C1250.28 113.77 1248.76 113.42 1246.99 113.42H1237.82V103.48H1246.43C1250.77 103.48 1254.48 104.203 1257.56 105.65C1260.69 107.097 1263.07 109.15 1264.7 111.81C1266.38 114.47 1267.22 117.667 1267.22 121.4V122.52C1267.22 126.16 1266.38 129.333 1264.7 132.04C1263.07 134.7 1260.69 136.753 1257.56 138.2C1254.48 139.647 1250.77 140.37 1246.43 140.37H1237.82ZM1227.74 155V103.48H1239.22V155H1227.74ZM1274.14 155V116.64H1283.03V133.09H1282.82C1282.82 127.677 1283.96 123.5 1286.25 120.56C1288.58 117.62 1291.94 116.15 1296.33 116.15H1297.8V125.81H1295C1291.92 125.81 1289.54 126.65 1287.86 128.33C1286.18 129.963 1285.34 132.343 1285.34 135.47V155H1274.14ZM1322.09 156.33C1318.73 156.33 1315.74 155.817 1313.13 154.79C1310.52 153.717 1308.3 152.27 1306.48 150.45C1304.71 148.63 1303.35 146.553 1302.42 144.22C1301.49 141.84 1301.02 139.343 1301.02 136.73V135.12C1301.02 132.46 1301.49 129.94 1302.42 127.56C1303.4 125.133 1304.8 123.01 1306.62 121.19C1308.49 119.37 1310.73 117.947 1313.34 116.92C1315.95 115.847 1318.87 115.31 1322.09 115.31C1325.4 115.31 1328.34 115.847 1330.91 116.92C1333.52 117.947 1335.74 119.37 1337.56 121.19C1339.38 123.01 1340.78 125.133 1341.76 127.56C1342.74 129.94 1343.23 132.46 1343.23 135.12V136.73C1343.23 139.343 1342.76 141.84 1341.83 144.22C1340.9 146.553 1339.52 148.63 1337.7 150.45C1335.93 152.27 1333.73 153.717 1331.12 154.79C1328.51 155.817 1325.5 156.33 1322.09 156.33ZM1322.09 146.88C1324.28 146.88 1326.1 146.413 1327.55 145.48C1329 144.547 1330.09 143.24 1330.84 141.56C1331.63 139.88 1332.03 138.013 1332.03 135.96C1332.03 133.767 1331.63 131.853 1330.84 130.22C1330.05 128.54 1328.9 127.21 1327.41 126.23C1325.96 125.25 1324.19 124.76 1322.09 124.76C1320.04 124.76 1318.26 125.25 1316.77 126.23C1315.28 127.21 1314.13 128.54 1313.34 130.22C1312.59 131.853 1312.22 133.767 1312.22 135.96C1312.22 138.013 1312.59 139.88 1313.34 141.56C1314.09 143.24 1315.21 144.547 1316.7 145.48C1318.19 146.413 1319.99 146.88 1322.09 146.88ZM1368.48 155.49C1364.6 155.49 1361.48 155.023 1359.1 154.09C1356.72 153.11 1354.97 151.5 1353.85 149.26C1352.77 146.973 1352.24 143.893 1352.24 140.02V106.28H1362.67V140.44C1362.67 142.26 1363.13 143.66 1364.07 144.64C1365.05 145.573 1366.42 146.04 1368.2 146.04H1373.87V155.49H1368.48ZM1346.43 124.83V116.64H1373.87V124.83H1346.43ZM1398.83 156.33C1395.56 156.33 1392.67 155.77 1390.15 154.65C1387.68 153.53 1385.6 152.037 1383.92 150.17C1382.29 148.257 1381.03 146.133 1380.14 143.8C1379.3 141.42 1378.88 138.993 1378.88 136.52V135.12C1378.88 132.553 1379.3 130.103 1380.14 127.77C1381.03 125.39 1382.29 123.267 1383.92 121.4C1385.55 119.533 1387.58 118.063 1390.01 116.99C1392.48 115.87 1395.28 115.31 1398.41 115.31C1402.52 115.31 1405.97 116.243 1408.77 118.11C1411.62 119.93 1413.79 122.333 1415.28 125.32C1416.77 128.26 1417.52 131.48 1417.52 134.98V138.76H1383.57V132.39H1410.73L1407.09 135.33C1407.09 133.043 1406.76 131.083 1406.11 129.45C1405.46 127.817 1404.48 126.58 1403.17 125.74C1401.91 124.853 1400.32 124.41 1398.41 124.41C1396.45 124.41 1394.79 124.853 1393.44 125.74C1392.09 126.627 1391.06 127.933 1390.36 129.66C1389.66 131.34 1389.31 133.417 1389.31 135.89C1389.31 138.177 1389.64 140.183 1390.29 141.91C1390.94 143.59 1391.97 144.897 1393.37 145.83C1394.77 146.763 1396.59 147.23 1398.83 147.23C1400.88 147.23 1402.56 146.833 1403.87 146.04C1405.18 145.247 1406.06 144.267 1406.53 143.1H1416.82C1416.26 145.667 1415.16 147.953 1413.53 149.96C1411.9 151.967 1409.84 153.53 1407.37 154.65C1404.9 155.77 1402.05 156.33 1398.83 156.33ZM1440.06 170.26C1438.2 170.26 1436.28 170.19 1434.32 170.05C1432.36 169.91 1430.57 169.723 1428.93 169.49V160.04C1430.57 160.273 1432.36 160.46 1434.32 160.6C1436.33 160.787 1438.15 160.88 1439.78 160.88C1442.82 160.88 1445.27 160.53 1447.13 159.83C1449.05 159.13 1450.45 158.057 1451.33 156.61C1452.22 155.21 1452.66 153.39 1452.66 151.15V143.52L1454.69 139.04C1454.6 142.447 1453.92 145.363 1452.66 147.79C1451.45 150.217 1449.75 152.083 1447.55 153.39C1445.36 154.65 1442.75 155.28 1439.71 155.28C1437.1 155.28 1434.72 154.813 1432.57 153.88C1430.47 152.9 1428.68 151.547 1427.18 149.82C1425.69 148.093 1424.55 146.087 1423.75 143.8C1422.96 141.467 1422.56 138.947 1422.56 136.24V134.63C1422.56 131.923 1422.98 129.403 1423.82 127.07C1424.66 124.737 1425.88 122.707 1427.46 120.98C1429.05 119.253 1430.94 117.923 1433.13 116.99C1435.33 116.01 1437.75 115.52 1440.41 115.52C1443.49 115.52 1446.15 116.197 1448.39 117.55C1450.68 118.903 1452.48 120.887 1453.78 123.5C1455.09 126.113 1455.79 129.263 1455.88 132.95L1454.34 133.37V116.64H1463.23V150.45C1463.23 155.163 1462.39 158.967 1460.71 161.86C1459.03 164.753 1456.47 166.877 1453.01 168.23C1449.61 169.583 1445.29 170.26 1440.06 170.26ZM1443.21 145.83C1444.94 145.83 1446.5 145.457 1447.9 144.71C1449.3 143.917 1450.4 142.797 1451.19 141.35C1452.03 139.903 1452.45 138.153 1452.45 136.1V134.07C1452.45 132.063 1452.01 130.383 1451.12 129.03C1450.28 127.63 1449.16 126.58 1447.76 125.88C1446.36 125.133 1444.87 124.76 1443.28 124.76C1441.42 124.76 1439.76 125.203 1438.31 126.09C1436.87 126.977 1435.75 128.213 1434.95 129.8C1434.16 131.387 1433.76 133.253 1433.76 135.4C1433.76 137.593 1434.16 139.483 1434.95 141.07C1435.79 142.61 1436.91 143.8 1438.31 144.64C1439.76 145.433 1441.39 145.83 1443.21 145.83ZM1474.75 155V116.64H1485.95V155H1474.75ZM1469.64 124.9V116.64H1485.95V124.9H1469.64ZM1479.09 112.86C1476.99 112.86 1475.43 112.323 1474.4 111.25C1473.42 110.13 1472.93 108.73 1472.93 107.05C1472.93 105.323 1473.42 103.923 1474.4 102.85C1475.43 101.73 1476.99 101.17 1479.09 101.17C1481.19 101.17 1482.73 101.73 1483.71 102.85C1484.74 103.923 1485.25 105.323 1485.25 107.05C1485.25 108.73 1484.74 110.13 1483.71 111.25C1482.73 112.323 1481.19 112.86 1479.09 112.86ZM1512.13 156.26C1509.42 156.26 1506.95 155.77 1504.71 154.79C1502.52 153.81 1500.6 152.457 1498.97 150.73C1497.34 148.957 1496.08 146.88 1495.19 144.5C1494.35 142.12 1493.93 139.553 1493.93 136.8V135.19C1493.93 132.437 1494.33 129.87 1495.12 127.49C1495.96 125.11 1497.15 123.033 1498.69 121.26C1500.28 119.44 1502.17 118.04 1504.36 117.06C1506.55 116.033 1509 115.52 1511.71 115.52C1514.79 115.52 1517.45 116.197 1519.69 117.55C1521.93 118.857 1523.68 120.817 1524.94 123.43C1526.2 125.997 1526.9 129.17 1527.04 132.95L1524.1 130.22V103.9H1535.37V155H1526.48V139.11H1528.02C1527.88 142.75 1527.11 145.853 1525.71 148.42C1524.36 150.987 1522.51 152.947 1520.18 154.3C1517.85 155.607 1515.16 156.26 1512.13 156.26ZM1514.93 146.88C1516.66 146.88 1518.22 146.507 1519.62 145.76C1521.07 144.967 1522.21 143.823 1523.05 142.33C1523.94 140.837 1524.38 139.04 1524.38 136.94V134.35C1524.38 132.297 1523.94 130.57 1523.05 129.17C1522.16 127.77 1521 126.697 1519.55 125.95C1518.1 125.203 1516.54 124.83 1514.86 124.83C1512.99 124.83 1511.31 125.32 1509.82 126.3C1508.37 127.233 1507.23 128.54 1506.39 130.22C1505.55 131.853 1505.13 133.767 1505.13 135.96C1505.13 138.2 1505.55 140.137 1506.39 141.77C1507.23 143.403 1508.4 144.663 1509.89 145.55C1511.38 146.437 1513.06 146.88 1514.93 146.88ZM1568.7 155V143.66H1566.81V131.34C1566.81 129.38 1566.34 127.91 1565.41 126.93C1564.47 125.95 1562.98 125.46 1560.93 125.46C1559.9 125.46 1558.55 125.483 1556.87 125.53C1555.19 125.577 1553.46 125.647 1551.69 125.74C1549.91 125.833 1548.3 125.927 1546.86 126.02V116.57C1547.93 116.477 1549.19 116.383 1550.64 116.29C1552.08 116.197 1553.58 116.127 1555.12 116.08C1556.66 116.033 1558.1 116.01 1559.46 116.01C1563.38 116.01 1566.67 116.57 1569.33 117.69C1572.03 118.81 1574.09 120.513 1575.49 122.8C1576.89 125.04 1577.59 127.933 1577.59 131.48V155H1568.7ZM1556.45 155.98C1553.69 155.98 1551.27 155.49 1549.17 154.51C1547.11 153.53 1545.5 152.13 1544.34 150.31C1543.17 148.443 1542.59 146.227 1542.59 143.66C1542.59 140.86 1543.31 138.573 1544.76 136.8C1546.2 134.98 1548.23 133.65 1550.85 132.81C1553.46 131.923 1556.47 131.48 1559.88 131.48H1568.07V137.71H1559.81C1557.85 137.71 1556.33 138.2 1555.26 139.18C1554.23 140.113 1553.72 141.397 1553.72 143.03C1553.72 144.57 1554.23 145.83 1555.26 146.81C1556.33 147.743 1557.85 148.21 1559.81 148.21C1561.07 148.21 1562.19 148 1563.17 147.58C1564.19 147.113 1565.03 146.343 1565.69 145.27C1566.34 144.197 1566.71 142.703 1566.81 140.79L1569.47 143.59C1569.23 146.25 1568.58 148.49 1567.51 150.31C1566.48 152.13 1565.03 153.53 1563.17 154.51C1561.35 155.49 1559.11 155.98 1556.45 155.98Z" fill="white"></path><g clip-path="url(#clip0_2_15)"><path d="M569.948 108.667C611.284 108.44 626 86.5451 626 67.7708C625.996 62.7378 624.268 57.8579 621.104 53.9439C617.94 50.0299 613.53 47.3179 608.61 46.2596C609.465 43.8247 610.208 41.5912 610.705 39.8987C611.803 36.2177 612.019 32.3298 611.335 28.5499C610.65 24.77 609.085 21.2044 606.766 18.1421C604.428 14.983 601.38 12.4186 597.867 10.6567C594.354 8.89469 590.475 7.98456 586.545 7.99995H514.455C510.525 7.98456 506.646 8.89469 503.133 10.6567C499.62 12.4186 496.572 14.983 494.234 18.1421C491.915 21.2044 490.35 24.77 489.665 28.5499C488.981 32.3298 489.197 36.2177 490.295 39.8987C490.792 41.5912 491.553 43.8247 492.39 46.2596C487.47 47.3179 483.06 50.0299 479.896 53.9439C476.732 57.8579 475.004 62.7378 475 67.7708C475 86.5451 489.716 108.44 531.052 108.667C531.42 110.577 531.612 112.516 531.625 114.461V133.833C531.733 135.514 531.482 137.198 530.888 138.774C530.293 140.349 529.37 141.78 528.179 142.971C526.989 144.162 525.558 145.085 523.982 145.679C522.406 146.273 520.722 146.525 519.042 146.417H512.75C511.081 146.417 509.481 147.079 508.301 148.259C507.121 149.439 506.458 151.04 506.458 152.708C506.458 154.377 507.121 155.977 508.301 157.157C509.481 158.337 511.081 159 512.75 159H588.25C589.919 159 591.519 158.337 592.699 157.157C593.879 155.977 594.542 154.377 594.542 152.708C594.542 151.04 593.879 149.439 592.699 148.259C591.519 147.079 589.919 146.417 588.25 146.417H582.009C580.325 146.53 578.636 146.283 577.055 145.691C575.474 145.1 574.038 144.178 572.842 142.987C571.646 141.795 570.718 140.363 570.12 138.784C569.522 137.206 569.268 135.518 569.375 133.833V114.455C569.389 112.512 569.58 110.575 569.948 108.667ZM603.979 58.3333C606.482 58.3333 608.883 59.3276 610.652 61.0975C612.422 62.8673 613.417 65.2678 613.417 67.7708C613.417 80.568 603.293 94.1958 575.44 95.8945C576.833 93.9932 578.442 92.2598 580.234 90.7291C590.263 81.6942 598.257 70.6299 603.683 58.2704C603.784 58.2767 603.872 58.3333 603.979 58.3333ZM487.583 67.7708C487.583 65.2678 488.578 62.8673 490.348 61.0975C492.117 59.3276 494.518 58.3333 497.021 58.3333C497.128 58.3333 497.216 58.2767 497.317 58.2704C502.743 70.6299 510.737 81.6942 520.766 90.7291C522.558 92.2598 524.167 93.9932 525.56 95.8945C497.707 94.1958 487.583 80.568 487.583 67.7708ZM541.144 146.417C543.224 142.553 544.279 138.221 544.208 133.833V114.461C544.23 108.131 542.873 101.872 540.232 96.1186C537.591 90.3655 533.728 85.2566 528.913 81.1469C516.119 68.9194 506.934 53.4091 502.362 36.3124C501.825 34.5078 501.722 32.6019 502.061 30.7497C502.4 28.8976 503.171 27.1518 504.313 25.6544C505.487 24.0722 507.016 22.7886 508.778 21.9076C510.54 21.0266 512.485 20.5729 514.455 20.5833H586.545C588.517 20.5758 590.463 21.0334 592.225 21.9188C593.988 22.8043 595.516 24.0927 596.687 25.6795C597.829 27.1769 598.6 28.9228 598.939 30.7749C599.278 32.627 599.175 34.533 598.638 36.3376C594.062 53.4252 584.877 68.9263 572.087 81.1469C567.272 85.2553 563.409 90.3631 560.768 96.1152C558.127 101.867 556.77 108.125 556.792 114.455V133.833C556.721 138.221 557.776 142.553 559.856 146.417H541.144Z" fill="white"></path></g><path d="M1172.62 55.809V46.375C1172.62 34.0756 1167.74 22.2799 1159.04 13.5829C1150.35 4.88592 1138.55 0 1126.25 0C1113.95 0 1102.15 4.88592 1093.46 13.5829C1084.76 22.2799 1079.88 34.0756 1079.88 46.375V55.809C1073.97 58.3842 1068.95 62.623 1065.42 68.007C1061.89 73.3911 1060.01 79.6871 1060 86.125V125.875C1060.01 134.657 1063.5 143.076 1069.71 149.286C1075.92 155.496 1084.34 158.989 1093.12 159H1159.38C1168.16 158.989 1176.58 155.496 1182.79 149.286C1189 143.076 1192.49 134.657 1192.5 125.875V86.125C1192.49 79.6871 1190.61 73.3911 1187.08 68.007C1183.55 62.623 1178.53 58.3842 1172.62 55.809V55.809ZM1093.12 46.375C1093.12 37.5897 1096.61 29.1642 1102.83 22.9521C1109.04 16.7399 1117.46 13.25 1126.25 13.25C1135.04 13.25 1143.46 16.7399 1149.67 22.9521C1155.89 29.1642 1159.38 37.5897 1159.38 46.375V53H1093.12V46.375ZM1179.25 125.875C1179.25 131.146 1177.16 136.201 1173.43 139.929C1169.7 143.656 1164.65 145.75 1159.38 145.75H1093.12C1087.85 145.75 1082.8 143.656 1079.07 139.929C1075.34 136.201 1073.25 131.146 1073.25 125.875V86.125C1073.25 80.8538 1075.34 75.7985 1079.07 72.0713C1082.8 68.344 1087.85 66.25 1093.12 66.25H1159.38C1164.65 66.25 1169.7 68.344 1173.43 72.0713C1177.16 75.7985 1179.25 80.8538 1179.25 86.125V125.875Z" fill="white"></path><path d="M1126.25 92.75C1124.49 92.75 1122.81 93.448 1121.57 94.6904C1120.32 95.9328 1119.62 97.6179 1119.62 99.375V112.625C1119.62 114.382 1120.32 116.067 1121.57 117.31C1122.81 118.552 1124.49 119.25 1126.25 119.25C1128.01 119.25 1129.69 118.552 1130.93 117.31C1132.18 116.067 1132.88 114.382 1132.88 112.625V99.375C1132.88 97.6179 1132.18 95.9328 1130.93 94.6904C1129.69 93.448 1128.01 92.75 1126.25 92.75Z" fill="white"></path><defs><clipPath id="clip0_2_15"><rect width="151" height="151" fill="white" transform="translate(475 8)"></rect></clipPath></defs></svg>